<svg width="257" height="256" viewBox="0 0 257 256" xmlns="http://www.w3.org/2000/svg" xmlns:xlink="http://www.w3.org/1999/xlink">
    <defs>
        <path id="rtc5xmy4ca" d="M0 0h8v12H0z"/>
        <path id="s5pwbweznc" d="M0 0h7v7H0z"/>
        <path id="5s76otyewe" d="M0 0h20v20H0z"/>
        <filter x="-4.3%" y="-3.3%" width="113%" height="110%" filterUnits="objectBoundingBox" id="0g6wkbt6cg">
            <feMorphology radius="1" operator="dilate" in="SourceAlpha" result="shadowSpreadOuter1"/>
            <feOffset dx="2" dy="2" in="shadowSpreadOuter1" result="shadowOffsetOuter1"/>
            <feComposite in="shadowOffsetOuter1" in2="SourceAlpha" operator="out" result="shadowOffsetOuter1"/>
            <feColorMatrix values="0 0 0 0 0.2 0 0 0 0 0.2 0 0 0 0 0.2 0 0 0 1 0" in="shadowOffsetOuter1"/>
        </filter>
        <filter x="-14.2%" y="-44%" width="128.4%" height="187.9%" filterUnits="objectBoundingBox" id="eytt8behti">
            <feOffset dx="1" dy="1" in="SourceAlpha" result="shadowOffsetOuter1"/>
            <feColorMatrix values="0 0 0 0 0.2 0 0 0 0 0.2 0 0 0 0 0.2 0 0 0 1 0" in="shadowOffsetOuter1" result="shadowMatrixOuter1"/>
            <feMerge>
                <feMergeNode in="shadowMatrixOuter1"/>
                <feMergeNode in="SourceGraphic"/>
            </feMerge>
        </filter>
        <rect id="e73mxlpf2h" x="3" y="3" width="46" height="60" rx="6"/>
    </defs>
    <g fill="none" fill-rule="evenodd">
        <path fill="none" d="M0 0h257v256H0z"/>
        <g transform="translate(137 141)">
            <rect stroke="#333" fill="#FFF" x=".5" y=".5" width="24" height="24" rx="12"/>
            <g fill="#333">
                <path d="M8.586 12.086h8v1h-8z"/>
                <path d="m16.926 10.305 2.105 2.104a.3.3 0 0 1 0 .424l-2.105 2.105a.3.3 0 0 1-.512-.213v-4.208a.3.3 0 0 1 .512-.212zM8.316 10.305l-2.104 2.104a.3.3 0 0 0 0 .424l2.104 2.105a.3.3 0 0 0 .512-.213v-4.208a.3.3 0 0 0-.512-.212z"/>
                <g>
                    <path d="M13.157 8.586v8h-1v-8z"/>
                    <path d="m14.938 16.926-2.105 2.105a.3.3 0 0 1-.424 0l-2.104-2.105a.3.3 0 0 1 .212-.512h4.208a.3.3 0 0 1 .213.512zM14.938 8.316l-2.105-2.104a.3.3 0 0 0-.424 0l-2.104 2.104a.3.3 0 0 0 .212.512h4.208a.3.3 0 0 0 .213-.512z"/>
                </g>
            </g>
        </g>
        <g transform="translate(75 41)">
            <rect stroke="#333" x=".5" y=".5" width="14" height="14" rx="7"/>
            <g fill="#333">
                <path d="M9 6h-.374l-2.115.346-.08.25c.087-.003.161-.005.224-.005.137 0 .245.035.324.106a.323.323 0 0 1 .119.245c0 .147-.042.365-.125.654l-.867 3.003c-.07.239-.106.436-.106.59 0 .235.08.429.24.582.16.152.375.229.646.229.706 0 1.374-.55 2.002-1.652l-.212-.126c-.262.406-.487.687-.674.842a.322.322 0 0 1-.212.094c-.042 0-.081-.02-.119-.06a.185.185 0 0 1-.056-.128c0-.08.036-.247.106-.503L9 6zM8.697 3a.958.958 0 0 0-.707.293A.968.968 0 0 0 7.7 4c0 .277.098.513.294.707A.96.96 0 0 0 8.697 5a.968.968 0 0 0 .71-.293A.962.962 0 0 0 9.7 4a.968.968 0 0 0-.29-.707A.966.966 0 0 0 8.697 3"/>
            </g>
        </g>
        <path d="M138.516 50.516a4.725 4.725 0 1 1 0-6.682" stroke="#333" stroke-width="1.2" stroke-linecap="round" stroke-linejoin="round"/>
        <path d="M140.3 41.724V45.7a.3.3 0 0 1-.3.3h-3.976a.3.3 0 0 1-.212-.512l3.976-3.976a.3.3 0 0 1 .512.212z" fill="#333"/>
        <g transform="translate(48 41)">
            <rect stroke="#FFF" x=".5" y=".5" width="14" height="14" rx="7"/>
            <g fill="#FFF">
                <path d="M9 6h-.374l-2.115.346-.08.25c.087-.003.161-.005.224-.005.137 0 .245.035.324.106a.323.323 0 0 1 .119.245c0 .147-.042.365-.125.654l-.867 3.003c-.07.239-.106.436-.106.59 0 .235.08.429.24.582.16.152.375.229.646.229.706 0 1.374-.55 2.002-1.652l-.212-.126c-.262.406-.487.687-.674.842a.322.322 0 0 1-.212.094c-.042 0-.081-.02-.119-.06a.185.185 0 0 1-.056-.128c0-.08.036-.247.106-.503L9 6zM8.697 3a.958.958 0 0 0-.707.293A.968.968 0 0 0 7.7 4c0 .277.098.513.294.707A.96.96 0 0 0 8.697 5a.968.968 0 0 0 .71-.293A.962.962 0 0 0 9.7 4a.968.968 0 0 0-.29-.707A.966.966 0 0 0 8.697 3"/>
            </g>
        </g>
        <g transform="translate(21 41)">
            <rect stroke="#333" x=".5" y=".5" width="14" height="14" rx="7"/>
            <g transform="translate(6.5 3)" fill="#333">
                <path d="M.997 7a.958.958 0 0 0-.707.293A.968.968 0 0 0 0 8c0 .277.098.513.294.707A.96.96 0 0 0 .997 9a.968.968 0 0 0 .71-.293A.962.962 0 0 0 2 8a.968.968 0 0 0-.29-.707A.966.966 0 0 0 .997 7"/>
                <rect width="2" height="6" rx="1"/>
            </g>
        </g>
        <g transform="translate(102 41)">
            <rect stroke="#333" fill="#F7F7F7" x=".5" y=".5" width="14" height="14" rx="7"/>
            <g fill="#333">
                <path d="M9 6h-.374l-2.115.346-.08.25c.087-.003.161-.005.224-.005.137 0 .245.035.324.106a.323.323 0 0 1 .119.245c0 .147-.042.365-.125.654l-.867 3.003c-.07.239-.106.436-.106.59 0 .235.08.429.24.582.16.152.375.229.646.229.706 0 1.374-.55 2.002-1.652l-.212-.126c-.262.406-.487.687-.674.842a.322.322 0 0 1-.212.094c-.042 0-.081-.02-.119-.06a.185.185 0 0 1-.056-.128c0-.08.036-.247.106-.503L9 6zM8.697 3a.958.958 0 0 0-.707.293A.968.968 0 0 0 7.7 4c0 .277.098.513.294.707A.96.96 0 0 0 8.697 5a.968.968 0 0 0 .71-.293A.962.962 0 0 0 9.7 4a.968.968 0 0 0-.29-.707A.966.966 0 0 0 8.697 3"/>
            </g>
        </g>
        <g transform="translate(10 11)">
            <rect fill="#333" x="1" y="1" width="18" height="18" rx="3"/>
            <rect stroke="#333" fill="#FFF" x=".5" y=".5" width="17" height="17" rx="3"/>
            <path d="M8.146 12.593a1.12 1.12 0 0 1-1.589-.002L4.17 10.205a1.122 1.122 0 0 1-.082-1.5l.082-.091a1.122 1.122 0 0 1 1.591 0l1.591 1.591 4.775-4.775a1.12 1.12 0 0 1 1.498-.08l.091.082c.44.44.44 1.15.002 1.589l-5.572 5.572z" fill="#333"/>
        </g>
        <g transform="translate(40 11)">
            <rect stroke="#DDD" fill="#FFF" x=".5" y=".5" width="17" height="17" rx="3"/>
            <path d="M8.146 12.593a1.12 1.12 0 0 1-1.589-.002L4.17 10.205a1.122 1.122 0 0 1-.082-1.5l.082-.091a1.122 1.122 0 0 1 1.591 0l1.591 1.591 4.775-4.775a1.12 1.12 0 0 1 1.498-.08l.091.082c.44.44.44 1.15.002 1.589l-5.572 5.572z" fill="#DDD"/>
        </g>
        <g transform="translate(70 11)">
            <circle fill="#333" cx="10" cy="10" r="9"/>
            <circle stroke="#333" fill="#FFF" cx="9" cy="9" r="8.5"/>
            <circle fill="#333" cx="9" cy="9" r="4"/>
        </g>
        <g transform="translate(100 11)">
            <rect stroke="#DDD" fill="#FFF" x=".5" y=".5" width="17" height="17" rx="8.5"/>
            <circle fill="#DDD" cx="9" cy="9" r="4"/>
        </g>
        <path d="M88 74h10v10H88z"/>
        <path d="m90.462 75.402 2.475 2.474 2.475-2.474a.75.75 0 1 1 1.06 1.06l-2.475 2.475 2.476 2.475a.75.75 0 1 1-1.06 1.06l-2.476-2.475-2.475 2.476a.75.75 0 1 1-1.06-1.06l2.474-2.476-2.474-2.475a.75.75 0 1 1 1.06-1.06z" fill="#FFF"/>
        <path fill="#EBEBEB" d="M130 10h10v10h-10z"/>
        <path fill="#FFF" d="M140 10h10v10h-10z"/>
        <path fill="#F4F4F4" d="M130 20h10v10h-10z"/>
        <path fill="#EBEBEB" d="M140 20h10v10h-10z"/>
        <path fill="#FFF" d="M130 20h10v10h-10z"/>
        <path fill="none" d="M10 180h20v20H10z"/>
        <g transform="translate(12 181.6)">
            <path d="M2 3.4h12v11.5a1.5 1.5 0 0 1-1.5 1.5h-9A1.5 1.5 0 0 1 2 14.9V3.4z" stroke="#333" stroke-width="1.4"/>
            <rect fill="#333" x="5.6" y="7.9" width="1.4" height="4" rx=".7"/>
            <rect fill="#333" x="9" y="7.9" width="1.4" height="4" rx=".7"/>
            <rect fill="#333" y="2.7" width="16" height="1.4" rx=".7"/>
            <rect fill="#333" x="6" width="4" height="1.4" rx=".7"/>
        </g>
        <g transform="matrix(0 -1 -1 0 120 82)">
            <mask id="osqjppyvrb" fill="#fff">
                <use xlink:href="#rtc5xmy4ca"/>
            </mask>
            <g mask="url(#osqjppyvrb)" fill="#333">
                <g transform="rotate(-45 7.74 1.792)">
                    <rect width="2" height="7" rx="1"/>
                    <rect width="7" height="2" rx="1"/>
                </g>
            </g>
        </g>
        <path d="m134 75.5 3.359 3.359a.2.2 0 0 1 0 .282L134 82.5h0" stroke="#333" stroke-linecap="round" stroke-width="1.6"/>
        <path fill="none" d="M176 74h16v16h-16z"/>
        <path d="M190.5 82.5v5a1 1 0 0 1-1 1h-11a1 1 0 0 1-1-1v-11a1 1 0 0 1 1-1h5M187 75.5h3.5V79" stroke="#333" stroke-width="1.2" stroke-linecap="round" stroke-linejoin="round"/>
        <path stroke="#333" stroke-width="1.2" stroke-linecap="round" d="m183 83 7.5-7.5"/>
        <path fill="none" d="M202 74h16v16h-16z"/>
        <g stroke="#333" stroke-linecap="round" stroke-width="1.2">
            <path d="M210 76v7.5M208 82.5l1.859 1.859a.2.2 0 0 0 .282 0L212 82.5h0M204 85.5v2.3c0 .11.09.2.2.2h11.6a.2.2 0 0 0 .2-.2v-2.3h0"/>
        </g>
        <path fill="none" d="M10 74h16v16H10z"/>
        <path stroke="#333" stroke-width="2" stroke-linecap="round" d="m12 76 12 12M24 76 12 88"/>
        <path fill="none" d="M52 90H36V74h16z"/>
        <path d="m46 76.5-5.186 5.145a.5.5 0 0 0 0 .71L46 87.5h0" stroke="#333" stroke-width="1.8" stroke-linecap="round"/>
        <path fill="none" d="M62 90h16V74H62z"/>
        <path d="m68 76.5 5.186 5.145a.5.5 0 0 1 0 .71L68 87.5h0" stroke="#333" stroke-width="1.8" stroke-linecap="round"/>
        <path fill="none" d="M150 90h16V74h-16z"/>
        <path d="m156 76.5 5.186 5.145a.5.5 0 0 1 0 .71L156 87.5h0" stroke="#FFF" stroke-width="1.8" stroke-linecap="round"/>
        <path fill="none" d="M10 100h28v28H10z"/>
        <path stroke="#333" stroke-width="2" stroke-linecap="round" d="m18 108 12 12M30 108l-12 12"/>
        <g stroke="#333" stroke-linecap="round" stroke-width="1.6">
            <path d="M57.5 114h9M62 109.5v9"/>
        </g>
        <path fill="none" d="M86 100h28v28H86z"/>
        <path d="M106 108.75a1.246 1.246 0 0 1 1.247 1.157c.022.305-.067.617-.268.87l-7.742 7.753a1.747 1.747 0 0 1-2.356.109l-3.765-3.755a1.246 1.246 0 0 1 0-1.768 1.245 1.245 0 0 1 1.66-.096L98 116.232l7.117-7.116c.244-.244.564-.366.884-.366z" stroke="#FFF" fill="#333" fill-rule="nonzero"/>
        <path d="m94 114 3.859 3.859a.2.2 0 0 0 .282 0L106 110h0" stroke="#333" stroke-width="2" stroke-linecap="round"/>
        <path d="M106 108.5a1.495 1.495 0 0 1 1.497 1.405c.023.367-.088.74-.333 1.041l-7.962 7.973a1.697 1.697 0 0 1-2.289.105l-3.974-3.963A1.495 1.495 0 0 1 92.5 114a1.495 1.495 0 0 1 1.405-1.497c.367-.023.74.088 1.041.333L98 115.879l6.94-6.94c.293-.293.677-.439 1.061-.439z" stroke="#FFF" fill="#333" fill-rule="nonzero"/>
        <g stroke="#FFF" stroke-linecap="round" stroke-width="1.6">
            <path d="M133.5 114h9M138 109.5v9"/>
        </g>
        <g>
            <g transform="translate(95 141)">
                <rect stroke="#333" fill="#FFF" x=".5" y=".5" width="24" height="24" rx="12"/>
                <path d="M9.636 8.97 16 15.332l-.667.667L8.97 9.636z" fill="#333"/>
                <path d="M17 13.724V16.7a.3.3 0 0 1-.3.3h-2.976a.3.3 0 0 1-.212-.512l2.976-2.976a.3.3 0 0 1 .512.212zM11.276 8H8.3a.3.3 0 0 0-.3.3v2.976a.3.3 0 0 0 .512.212l2.976-2.976A.3.3 0 0 0 11.276 8z" fill="#333"/>
            </g>
        </g>
        <g>
            <g transform="translate(53 141)">
                <rect stroke="#333" fill="#FFF" x=".5" y=".5" width="24" height="24" rx="12"/>
                <g transform="translate(9 9)">
                    <mask id="66qiugcp1d" fill="#fff">
                        <use xlink:href="#s5pwbweznc"/>
                    </mask>
                    <use fill-opacity="0" fill="#D8D8D8" xlink:href="#s5pwbweznc"/>
                    <circle stroke="#333" stroke-width="1.2" mask="url(#66qiugcp1d)" cx="6" cy="6" r="5"/>
                </g>
                <path d="m12.145 15.89-2.104 2.105a.3.3 0 0 1-.425 0l-2.104-2.104a.3.3 0 0 1 .212-.512h4.209a.3.3 0 0 1 .212.512zM15.92 7.512l2.103 2.104a.3.3 0 0 1 0 .425l-2.104 2.104a.3.3 0 0 1-.512-.212V7.724a.3.3 0 0 1 .512-.212z" fill="#333"/>
            </g>
        </g>
        <g>
            <g transform="translate(11 139)">
                <rect fill="#333" x="1" y="1" width="28" height="28" rx="14"/>
                <rect stroke="#333" fill="#FFD100" x=".5" y=".5" width="27" height="27" rx="13.5"/>
                <path d="M14 7a1.79 1.79 0 0 1 1.78 1.988l-.67 6.018a1.117 1.117 0 0 1-2.22 0l-.67-6.018A1.79 1.79 0 0 1 14 7zm0 10.5a1.5 1.5 0 1 1 0 3 1.5 1.5 0 0 1 0-3z" fill="#333"/>
            </g>
        </g>
        <g>
            <path fill="none" d="M7 207h26v26H7z"/>
            <g fill="#CCC">
                <path fill="none" d="M20 208.686 31.314 220 20 231.314 8.686 220z"/>
                <path d="M25.657 214.343a2 2 0 0 1 0 2.829l-7.071 7.07-2.829-2.828 7.071-7.07a2 2 0 0 1 2.829 0zM15.05 222.121l2.829 2.829-3.536.707z"/>
            </g>
        </g>
        <g fill="#FFD000" fill-rule="nonzero">
            <path d="m108.653 212.136-2.092 3.131-3.624 1.022-.197.072a1.02 1.02 0 0 0-.192.098l-.174.117-.118.102a1.62 1.62 0 0 0-.151 2.173l2.331 2.957-.148 3.762.007.21c.005.08.014.135.034.213l.058.202.057.136a1.62 1.62 0 0 0 2.024.823L110 225.85l3.532 1.304.202.058c.078.02.133.028.213.033l.21.008.147-.013a1.62 1.62 0 0 0 1.408-1.67l-.149-3.762 2.332-2.957.118-.174a1.02 1.02 0 0 0 .097-.192l.072-.197.034-.144a1.62 1.62 0 0 0-1.153-1.855l-3.625-1.022-2.09-3.13-.13-.166a1.02 1.02 0 0 0-.153-.153l-.165-.13a1.62 1.62 0 0 0-2.247.448z"/>
        </g>
        <g transform="translate(160 210)">
            <path d="M0 0h20v20H0z"/>
            <rect stroke="#333" stroke-width="1.4" x="1.7" y="1.7" width="14.6" height="14.6" rx="7.3"/>
            <path stroke="#333" stroke-width="2" stroke-linecap="round" d="m18 18-3.5-3.5"/>
            <path stroke="#333" stroke-width="1.4" stroke-linecap="round" d="M6 9h6"/>
        </g>
        <g transform="translate(130 210)">
            <path d="M0 0h20v20H0z"/>
            <rect stroke="#333" stroke-width="1.4" x="1.7" y="1.7" width="14.6" height="14.6" rx="7.3"/>
            <path stroke="#333" stroke-width="2" stroke-linecap="round" d="m18 18-3.5-3.5"/>
            <path stroke="#333" stroke-width="1.4" stroke-linecap="round" d="M6 9h6M9 6v6"/>
        </g>
        <g fill-rule="nonzero">
            <path d="m48.653 212.136-2.092 3.131-3.624 1.022-.197.072a1.02 1.02 0 0 0-.192.098l-.174.117-.118.102a1.62 1.62 0 0 0-.151 2.173l2.331 2.957-.148 3.762.007.21c.005.08.014.135.034.213l.058.202.057.136a1.62 1.62 0 0 0 2.024.823L50 225.85l3.532 1.304.202.058c.078.02.133.028.213.033l.21.008.147-.013a1.62 1.62 0 0 0 1.408-1.67l-.149-3.762 2.332-2.957.118-.174a1.02 1.02 0 0 0 .097-.192l.072-.197.034-.144a1.62 1.62 0 0 0-1.153-1.855l-3.625-1.022-2.09-3.13-.13-.166a1.02 1.02 0 0 0-.153-.153l-.165-.13a1.62 1.62 0 0 0-2.247.448zm1.358.883 2.425 3.628 4.193 1.182a.02.02 0 0 1 .013.024l-2.7 3.428.171 4.352-.005.015-.018.006-4.09-1.51-4.086 1.509h-.016l-.011-.016.171-4.356-2.697-3.42-.004-.015.01-.016 4.197-1.183 2.42-3.622a.02.02 0 0 1 .027-.006z" fill="#FFF"/>
            <path d="m50.011 213.02 2.425 3.627 4.193 1.182a.02.02 0 0 1 .013.024l-2.7 3.428.171 4.352-.005.015-.018.006-4.09-1.51-4.086 1.509h-.016l-.011-.016.171-4.356-2.697-3.42-.004-.015.01-.016 4.197-1.183 2.42-3.622a.02.02 0 0 1 .027-.006z" fill-opacity=".1" fill="#333"/>
        </g>
        <g fill="#333" fill-rule="nonzero">
            <path d="m78.653 212.136-2.092 3.131-3.624 1.022-.197.072a1.02 1.02 0 0 0-.192.098l-.174.117-.118.102a1.62 1.62 0 0 0-.151 2.173l2.331 2.957-.148 3.762.007.21c.005.08.014.135.034.213l.058.202.057.136a1.62 1.62 0 0 0 2.024.823L80 225.85l3.532 1.304.202.058c.078.02.133.028.213.033l.21.008.147-.013a1.62 1.62 0 0 0 1.408-1.67l-.149-3.762 2.332-2.957.118-.174a1.02 1.02 0 0 0 .097-.192l.072-.197.034-.144a1.62 1.62 0 0 0-1.153-1.855l-3.625-1.022-2.09-3.13-.13-.166a1.02 1.02 0 0 0-.153-.153l-.165-.13a1.62 1.62 0 0 0-2.247.448zm1.358.883 2.425 3.628 4.193 1.182a.02.02 0 0 1 .013.024l-2.7 3.428.171 4.352-.005.015-.018.006-4.09-1.51-4.086 1.509h-.016l-.011-.016.171-4.356-2.697-3.42-.004-.015.01-.016 4.197-1.183 2.42-3.622a.02.02 0 0 1 .027-.006z"/>
        </g>
        <g>
            <g transform="translate(71 181)">
                <rect stroke="#333" stroke-width="1.2" fill="#EEE" x=".6" y=".6" width="13.8" height="13.8" rx="2"/>
                <g transform="translate(2 2)">
                    <mask id="bhdwbn1olf" fill="#fff">
                        <use xlink:href="#5s76otyewe"/>
                    </mask>
                    <use fill-opacity="0" fill="#D8D8D8" xlink:href="#5s76otyewe"/>
                    <path d="M11.786 3H5v6.786A3.214 3.214 0 0 0 8.214 13l.152-.003a3.214 3.214 0 0 0 3.063-3.211l-.001-.357h.358a3.214 3.214 0 1 0 0-6.429z" stroke="#333" stroke-width="1.4" fill="#FFF" fill-rule="nonzero" mask="url(#bhdwbn1olf)" transform="rotate(-135 10 8)"/>
                </g>
            </g>
        </g>
        <g>
            <g stroke="#333" stroke-width="1.2" stroke-linecap="round">
                <path stroke-linejoin="round" d="M41 184h15v15"/>
                <path stroke-linejoin="round" d="M44 181v15h15"/>
                <path d="M44.5 195.5 58 182"/>
            </g>
        </g>
        <g transform="translate(94 174)">
            <path d="M0 0h32v32H0z"/>
            <rect stroke="#333" stroke-width="1.2" x="7.6" y="7.6" width="16.8" height="16.8" rx="2"/>
            <path d="m8 17 4.111-4.111a1 1 0 0 1 1.555.177L20.5 24h0M17 18l2.118-2.825a1 1 0 0 1 1.652.076L24 20.5h0" stroke="#333" stroke-width="1.2" stroke-linecap="round"/>
        </g>
        <g>
            <path fill="none" d="M130 180h20v20h-20z"/>
            <path fill="#333" d="M132 182h4v4h-4zM132 188h4v4h-4zM132 194h4v4h-4z"/>
            <path fill="#333" opacity=".4" d="M138 182h4v4h-4zM138 188h4v4h-4zM138 194h4v4h-4z"/>
            <path fill="#333" opacity=".1" d="M144 182h4v4h-4zM144 188h4v4h-4zM144 194h4v4h-4z"/>
        </g>
        <g>
            <path fill="none" d="M190 180h52v66h-52z"/>
            <g transform="translate(190 180)">
                <use fill="#000" filter="url(#0g6wkbt6cg)" xlink:href="#e73mxlpf2h"/>
                <rect stroke="#333" fill="#FFF" x="2.5" y="2.5" width="47" height="61" rx="6"/>
            </g>
            <g filter="url(#eytt8behti)" transform="translate(202.182 221.9)" fill="#FFF" fill-rule="nonzero" stroke="#333" stroke-width="1.5">
                <path d="M15.763-.698c.39.038.745.102 1.066.188.324.088.62.2.887.333.494.247.971.623 1.423 1.136.848.96 1.28 2.124 1.28 3.5-.175 1.829-.459 2.55-.91 3.193a4.79 4.79 0 0 1-1.759 1.53c-.636.313-1.536.533-2.73.64-.601.023-.842.027-1.072.028H9.84a1.34 1.34 0 0 1-.667-.155 1.217 1.217 0 0 1-.411-.37 1.147 1.147 0 0 1-.197-.496c-.021-.531.049-.757.167-.947.095-.154.225-.288.395-.394l.135-.075-.042-5.373c-.22-.491-.377-.643-.488-.822a1.27 1.27 0 0 1-.188-.685c0-.549.243-.882.55-1.088l.095-.059 6.573-.084zm-1.667 2.736v.03a54.7 54.7 0 0 1-.035 1.03c-.022.55-.035.979-.037 1.288v1.863l-.001.154c-.006.296-.029.516-.024.634l.005.048-.075.003c.404.02.717-.22.99-.613.38-.55.55-1.209.53-1.97l-.014-.46-.01-.192a2.373 2.373 0 0 0-.489-1.23c-.177-.241-.356-.428-.595-.523a1.029 1.029 0 0 0-.245-.062zM26.569-.75c.804-.009 1.3.142 1.551.318.268.187.56.613.689 1.453l.15 1.014c-.669.62-1.112.848-1.403.922l.044-.013.03.03c.381.385.424.742.421 1.195l-.001.106-.024 1.68-2.901-.117v1.59c.85.534.707 1.126.627 1.808l-5.233.662c-.535-.664-.728-1.075-.789-1.323.367-.899.48-.98.515-1.095V.369zm-1.301 2.652-.085 1.131c.59-.49.913-.65 1.168-.703l.05-.009-.03-.016c-.512-.265-.785-.364-1.045-.397l-.058-.006zM5.855-.75c1.146-.013 2.054.284 2.743.844.767.623 1.174 1.493 1.174 2.636 0 .96-.364 1.732-1.076 2.318-.48.4-1.17.74-2.084.991-.347.102-.898.213-1.655.328l-.12 1.072c.83.532.689 1.12.609 1.797l-5.233.662c-.535-.664-.728-1.075-.789-1.323.367-.899.48-.98.515-1.095V.373z"/>
            </g>
            <path d="m216.613 195.71.094.083 4.5 4.5a1 1 0 0 1-1.32 1.497l-.094-.083-2.793-2.792V211a1 1 0 0 1-1.993.117L215 211v-12.085l-2.793 2.792a1 1 0 0 1-1.32.083l-.094-.083a1 1 0 0 1-.083-1.32l.083-.094 4.5-4.5a1 1 0 0 1 1.32-.083z" fill="#333" fill-rule="nonzero"/>
        </g>
        <g>
            <path fill="none" opacity=".3" d="M175 138h31v31h-31z"/>
            <path d="M201.5 151.5c.552 0 1.052.224 1.414.586.362.362.586.862.586 1.414 0 .552-.224 1.052-.586 1.414a1.994 1.994 0 0 1-1.414.586h-9v9c0 .552-.224 1.052-.586 1.414a1.994 1.994 0 0 1-1.414.586 1.994 1.994 0 0 1-1.414-.586 1.994 1.994 0 0 1-.586-1.414v-11c0-.552.224-1.052.586-1.414a1.994 1.994 0 0 1 1.414-.586z" stroke="#333" fill="#FFF"/>
        </g>
        <g transform="translate(216 138)">
            <path fill="none" opacity=".3" d="M0 0h31v31H0z"/>
            <rect stroke="#333" fill="#FFF" x="13.5" y="1.5" width="4" height="28" rx="1.5"/>
        </g>
        <path fill="none" d="M0 0h257v240H0z"/>
    </g>
</svg>
